<svg xmlns="http://www.w3.org/2000/svg" viewBox="0 0 20 20" fill="none">
  <circle cx="10" cy="10" r="10" fill="#FF4500"/>
  <path d="M16.67 10A1.46 1.46 0 0 0 14 8.9a7.12 7.12 0 0 0-3.85-1.23L11 4.05l2.43.51a1 1 0 1 0 .12-.74L10.8 3.3a.31.31 0 0 0-.37.24l-.74 3.47a7.14 7.14 0 0 0-3.9 1.23 1.46 1.46 0 1 0-1.61 2.39 2.87 2.87 0 0 0 0 .44c0 2.24 2.61 4.06 5.83 4.06s5.83-1.82 5.83-4.06a2.87 2.87 0 0 0 0-.44 1.46 1.46 0 0 0 .83-1.63zM6.87 11a1 1 0 1 1 2 0 1 1 0 0 1-2 0zm5.81 2.75a3.84 3.84 0 0 1-2.68.77 3.84 3.84 0 0 1-2.68-.77.38.38 0 0 1 .53-.53A3.09 3.09 0 0 0 10 14a3.09 3.09 0 0 0 2.15-.78.38.38 0 0 1 .53.53zm-.11-1.75a1 1 0 1 1 1-1 1 1 0 0 1-1 1z" fill="#fff"/>
</svg>

